<svg xmlns="http://www.w3.org/2000/svg" xmlns:xlink="http://www.w3.org/1999/xlink" width="1290" zoomAndPan="magnify" viewBox="0 0 967.5 374.999991" height="500" preserveAspectRatio="xMidYMid meet" version="1.0"><defs><g/><clipPath id="84a898ecfb"><path d="M 594 98 L 728 98 L 728 259.09375 L 594 259.09375 Z M 594 98 " clip-rule="nonzero"/></clipPath></defs><g fill="#ffffff" fill-opacity="1"><g transform="translate(-0.0000000000000725, 249.762001)"><g><path d="M 13.390625 0 L 13.390625 -212.578125 L 51.828125 -212.578125 L 51.828125 0 Z M 13.390625 0 "/></g></g></g><g fill="#ffffff" fill-opacity="1"><g transform="translate(65.228371, 249.762001)"><g><path d="M 8.15625 -74.25 C 8.15625 -85.125 10.238281 -95.316406 14.40625 -104.828125 C 18.582031 -114.347656 24.457031 -122.695312 32.03125 -129.875 C 39.601562 -137.0625 48.335938 -142.691406 58.234375 -146.765625 C 68.140625 -150.835938 78.816406 -152.875 90.265625 -152.875 C 105.609375 -152.875 119.488281 -149.378906 131.90625 -142.390625 C 144.332031 -135.410156 154.234375 -126 161.609375 -114.15625 C 168.992188 -102.3125 172.6875 -89.007812 172.6875 -74.25 C 172.6875 -63.382812 170.550781 -53.191406 166.28125 -43.671875 C 162.007812 -34.160156 156.132812 -25.8125 148.65625 -18.625 C 141.1875 -11.445312 132.453125 -5.816406 122.453125 -1.734375 C 112.453125 2.335938 101.722656 4.375 90.265625 4.375 C 78.816406 4.375 68.140625 2.335938 58.234375 -1.734375 C 48.335938 -5.816406 39.601562 -11.445312 32.03125 -18.625 C 24.457031 -25.8125 18.582031 -34.160156 14.40625 -43.671875 C 10.238281 -53.191406 8.15625 -63.382812 8.15625 -74.25 Z M 48.625 -74.25 C 48.625 -66.289062 50.46875 -59.007812 54.15625 -52.40625 C 57.851562 -45.8125 62.851562 -40.617188 69.15625 -36.828125 C 75.46875 -33.046875 82.503906 -31.15625 90.265625 -31.15625 C 98.234375 -31.15625 105.320312 -33.046875 111.53125 -36.828125 C 117.738281 -40.617188 122.6875 -45.8125 126.375 -52.40625 C 130.070312 -59.007812 131.921875 -66.289062 131.921875 -74.25 C 131.921875 -82.40625 130.070312 -89.734375 126.375 -96.234375 C 122.6875 -102.742188 117.738281 -107.890625 111.53125 -111.671875 C 105.320312 -115.460938 98.234375 -117.359375 90.265625 -117.359375 C 82.503906 -117.359375 75.46875 -115.460938 69.15625 -111.671875 C 62.851562 -107.890625 57.851562 -102.742188 54.15625 -96.234375 C 50.46875 -89.734375 48.625 -82.40625 48.625 -74.25 Z M 48.625 -74.25 "/></g></g></g><g fill="#ffffff" fill-opacity="1"><g transform="translate(246.062384, 249.762001)"><g><path d="M 170.0625 -148.515625 L 170.0625 -8.15625 C 170.0625 7.957031 166.613281 21.835938 159.71875 33.484375 C 152.832031 45.128906 143.03125 54.109375 130.3125 60.421875 C 117.59375 66.734375 102.398438 69.890625 84.734375 69.890625 C 71.148438 69.890625 58.191406 67.945312 45.859375 64.0625 C 33.535156 60.175781 22.8125 54.644531 13.6875 47.46875 L 31.734375 13.984375 C 40.085938 21.160156 48.628906 26.347656 57.359375 29.546875 C 66.097656 32.753906 75.320312 34.359375 85.03125 34.359375 C 100.5625 34.359375 112.546875 30.378906 120.984375 22.421875 C 129.429688 14.460938 133.65625 3.203125 133.65625 -11.359375 L 133.65625 -13.390625 C 127.0625 -7.953125 119.640625 -3.679688 111.390625 -0.578125 C 103.140625 2.523438 94.453125 4.078125 85.328125 4.078125 C 71.148438 4.078125 58.1875 0.535156 46.4375 -6.546875 C 34.695312 -13.640625 25.378906 -23.101562 18.484375 -34.9375 C 11.597656 -46.78125 8.15625 -59.984375 8.15625 -74.546875 C 8.15625 -89.109375 11.597656 -102.3125 18.484375 -114.15625 C 25.378906 -126 34.695312 -135.410156 46.4375 -142.390625 C 58.1875 -149.378906 71.148438 -152.875 85.328125 -152.875 C 94.453125 -152.875 103.140625 -151.367188 111.390625 -148.359375 C 119.640625 -145.359375 127.0625 -141.140625 133.65625 -135.703125 L 133.65625 -148.515625 Z M 48.625 -74.25 C 48.625 -66.289062 50.46875 -59.0625 54.15625 -52.5625 C 57.851562 -46.0625 62.851562 -40.914062 69.15625 -37.125 C 75.46875 -33.34375 82.503906 -31.453125 90.265625 -31.453125 C 98.035156 -31.453125 105.023438 -33.34375 111.234375 -37.125 C 117.453125 -40.914062 122.40625 -46.0625 126.09375 -52.5625 C 129.78125 -59.0625 131.625 -66.289062 131.625 -74.25 C 131.625 -82.40625 129.78125 -89.734375 126.09375 -96.234375 C 122.40625 -102.742188 117.453125 -107.890625 111.234375 -111.671875 C 105.023438 -115.460938 98.035156 -117.359375 90.265625 -117.359375 C 82.503906 -117.359375 75.46875 -115.460938 69.15625 -111.671875 C 62.851562 -107.890625 57.851562 -102.742188 54.15625 -96.234375 C 50.46875 -89.734375 48.625 -82.40625 48.625 -74.25 Z M 48.625 -74.25 "/></g></g></g><g fill="#ffffff" fill-opacity="1"><g transform="translate(429.808361, 249.762001)"><g><path d="M 13.390625 0 L 13.390625 -148.515625 L 49.21875 -148.515625 L 49.21875 -138.03125 C 58.53125 -148.320312 71.925781 -153.46875 89.40625 -153.46875 C 101.050781 -153.46875 111.289062 -150.941406 120.125 -145.890625 C 128.957031 -140.847656 135.847656 -133.859375 140.796875 -124.921875 C 145.742188 -115.992188 148.21875 -105.609375 148.21875 -93.765625 L 148.21875 0 L 109.78125 0 L 109.78125 -87.359375 C 109.78125 -96.097656 107.160156 -103.378906 101.921875 -109.203125 C 96.679688 -115.023438 89.882812 -117.9375 81.53125 -117.9375 C 73.1875 -117.9375 66.148438 -115.070312 60.421875 -109.34375 C 54.691406 -103.613281 51.828125 -96.675781 51.828125 -88.53125 L 51.828125 0 Z M 13.390625 0 "/></g></g></g><g fill="#ffffff" fill-opacity="1"><g transform="translate(591.450818, 249.762001)"><g/></g></g><g fill="#ffffff" fill-opacity="1"><g transform="translate(662.794338, 249.762001)"><g/></g></g><g clip-path="url(#84a898ecfb)"><path fill="#cedf67" d="M 708.191406 117.992188 C 682.246094 92.023438 640.179688 92.023438 614.230469 117.992188 C 588.285156 143.960938 588.285156 186.066406 614.230469 212.035156 L 661.210938 259.058594 L 708.191406 212.035156 C 734.140625 186.066406 734.140625 143.960938 708.191406 117.992188 Z M 661.164062 193.714844 C 676.964844 193.714844 689.777344 180.894531 689.777344 165.078125 C 689.777344 149.261719 676.964844 136.441406 661.164062 136.441406 C 645.363281 136.441406 632.554688 149.261719 632.554688 165.078125 C 632.554688 180.894531 645.363281 193.714844 661.164062 193.714844 Z M 661.164062 193.714844 " fill-opacity="1" fill-rule="evenodd"/></g><g fill="#ffffff" fill-opacity="1"><g transform="translate(718.280997, 248.555063)"><g><path d="M 55.390625 0 L 2.953125 -150.28125 L 45.078125 -150.28125 L 76.03125 -52.75 L 107.84375 -150.28125 L 144.6875 -150.28125 L 176.21875 -53.046875 L 206.5625 -150.28125 L 246.046875 -150.28125 L 195.953125 0 L 158.828125 0 L 125.53125 -99.296875 L 92.828125 0 Z M 55.390625 0 "/></g></g></g></svg>