<svg xmlns="http://www.w3.org/2000/svg" xmlns:xlink="http://www.w3.org/1999/xlink" width="1170" zoomAndPan="magnify" viewBox="0 0 877.5 410.99999" height="548" preserveAspectRatio="xMidYMid meet" version="1.0"><defs><g/><clipPath id="617fed84e2"><path d="M 706 110 L 808 110 L 808 214 L 706 214 Z M 706 110 " clip-rule="nonzero"/></clipPath><clipPath id="58fc4f55e6"><path d="M 684.890625 126.179688 L 757 59.53125 L 856.71875 167.421875 L 784.609375 234.070312 Z M 684.890625 126.179688 " clip-rule="nonzero"/></clipPath><clipPath id="0445c1dc95"><path d="M 684.890625 126.179688 L 757 59.53125 L 856.71875 167.421875 L 784.609375 234.070312 Z M 684.890625 126.179688 " clip-rule="nonzero"/></clipPath><clipPath id="d672d9af33"><path d="M 748 68 L 850 68 L 850 171 L 748 171 Z M 748 68 " clip-rule="nonzero"/></clipPath><clipPath id="d89eed7538"><path d="M 726.871094 83.898438 L 798.980469 17.246094 L 898.703125 125.136719 L 826.589844 191.789062 Z M 726.871094 83.898438 " clip-rule="nonzero"/></clipPath><clipPath id="ddc083ec4f"><path d="M 726.871094 83.898438 L 798.980469 17.246094 L 898.703125 125.136719 L 826.589844 191.789062 Z M 726.871094 83.898438 " clip-rule="nonzero"/></clipPath></defs><g clip-path="url(#617fed84e2)"><g clip-path="url(#58fc4f55e6)"><g clip-path="url(#0445c1dc95)"><path fill="#cedf67" d="M 807.664062 114.195312 L 719.867188 110.292969 C 702.90625 109.539062 700.042969 142.574219 720.136719 143.117188 L 774.769531 144.597656 L 770.597656 199.570312 C 769.328125 216.3125 801.976562 218.078125 802.90625 201.066406 Z M 807.664062 114.195312 " fill-opacity="1" fill-rule="nonzero"/></g></g></g><g clip-path="url(#d672d9af33)"><g clip-path="url(#d89eed7538)"><g clip-path="url(#ddc083ec4f)"><path fill="#cedf67" d="M 849.648438 71.910156 L 761.847656 68.011719 C 744.890625 67.257812 742.027344 100.289062 762.121094 100.835938 L 816.753906 102.316406 L 812.582031 157.289062 C 811.308594 174.027344 843.957031 175.796875 844.890625 158.785156 Z M 849.648438 71.910156 " fill-opacity="1" fill-rule="nonzero"/></g></g></g><g fill="#092343" fill-opacity="1"><g transform="translate(12.863138, 250.281575)"><g><path d="M 20.953125 -21.4375 L 20.953125 -6.171875 C 20.953125 -4.078125 20.207031 -2.523438 18.71875 -1.515625 C 17.226562 -0.503906 15.632812 0 13.9375 0 C 12.15625 0 10.554688 -0.503906 9.140625 -1.515625 C 7.734375 -2.523438 7.03125 -4.039062 7.03125 -6.0625 L 7.03125 -70.875 C 7.03125 -72.726562 7.710938 -74.238281 9.078125 -75.40625 C 10.453125 -76.582031 12.109375 -77.171875 14.046875 -77.171875 L 38.765625 -77.171875 C 45.472656 -77.171875 51.207031 -75.976562 55.96875 -73.59375 C 60.738281 -71.21875 64.375 -67.910156 66.875 -63.671875 C 69.382812 -59.429688 70.640625 -54.441406 70.640625 -48.703125 C 70.640625 -40.546875 67.8125 -33.960938 62.15625 -28.953125 C 56.5 -23.941406 48.582031 -21.4375 38.40625 -21.4375 Z M 20.953125 -65.1875 L 20.953125 -33.4375 L 38.40625 -33.4375 C 44.382812 -33.4375 48.945312 -34.828125 52.09375 -37.609375 C 55.25 -40.398438 56.828125 -44.097656 56.828125 -48.703125 C 56.828125 -53.710938 55.269531 -57.710938 52.15625 -60.703125 C 49.050781 -63.691406 44.628906 -65.1875 38.890625 -65.1875 Z M 20.953125 -65.1875 "/></g></g></g><g fill="#092343" fill-opacity="1"><g transform="translate(85.785612, 250.281575)"><g><path d="M 14.171875 0 C 11.585938 0 9.726562 -0.5625 8.59375 -1.6875 C 7.46875 -2.820312 6.90625 -4.441406 6.90625 -6.546875 L 6.90625 -71 C 6.90625 -73.09375 7.648438 -74.644531 9.140625 -75.65625 C 10.640625 -76.664062 12.273438 -77.171875 14.046875 -77.171875 C 15.742188 -77.171875 17.335938 -76.664062 18.828125 -75.65625 C 20.328125 -74.644531 21.078125 -73.09375 21.078125 -71 L 21.078125 -12.109375 L 60.828125 -12.109375 C 63.160156 -12.109375 64.953125 -11.460938 66.203125 -10.171875 C 67.460938 -8.878906 68.09375 -7.507812 68.09375 -6.0625 C 68.09375 -4.519531 67.460938 -3.125 66.203125 -1.875 C 64.953125 -0.625 63.160156 0 60.828125 0 Z M 14.171875 0 "/></g></g></g><g fill="#092343" fill-opacity="1"><g transform="translate(150.955453, 250.281575)"><g><path d="M 39.625 -78.390625 C 40.914062 -78.390625 42.125 -78.125 43.25 -77.59375 C 44.382812 -77.070312 45.234375 -76.207031 45.796875 -75 L 80.078125 -7.75 C 81.128906 -5.976562 81.410156 -4.425781 80.921875 -3.09375 C 80.441406 -1.757812 79.515625 -0.707031 78.140625 0.0625 C 76.773438 0.832031 75.320312 1.21875 73.78125 1.21875 C 72.65625 1.21875 71.503906 0.910156 70.328125 0.296875 C 69.160156 -0.304688 68.253906 -1.171875 67.609375 -2.296875 L 59.125 -19.140625 L 20.109375 -19.140625 L 11.625 -2.296875 C 11.0625 -1.003906 10.191406 -0.0976562 9.015625 0.421875 C 7.847656 0.953125 6.703125 1.21875 5.578125 1.21875 C 4.203125 1.21875 2.847656 0.832031 1.515625 0.0625 C 0.179688 -0.707031 -0.785156 -1.757812 -1.390625 -3.09375 C -1.992188 -4.425781 -1.9375 -5.859375 -1.21875 -7.390625 L 33.3125 -75 C 33.957031 -76.375 34.785156 -77.28125 35.796875 -77.71875 C 36.804688 -78.164062 38.082031 -78.390625 39.625 -78.390625 Z M 39.625 -57.90625 L 26.046875 -30.890625 L 53.1875 -30.890625 Z M 39.625 -57.90625 "/></g></g></g><g fill="#092343" fill-opacity="1"><g transform="translate(230.782618, 250.281575)"><g><path d="M 62.765625 -77.171875 C 65.097656 -77.171875 66.867188 -76.523438 68.078125 -75.234375 C 69.296875 -73.941406 69.90625 -72.488281 69.90625 -70.875 C 69.90625 -69.34375 69.296875 -67.929688 68.078125 -66.640625 C 66.867188 -65.347656 65.097656 -64.703125 62.765625 -64.703125 L 40.21875 -64.703125 L 40.34375 -6.421875 C 40.34375 -4.242188 39.554688 -2.628906 37.984375 -1.578125 C 36.410156 -0.523438 34.816406 0 33.203125 0 C 31.503906 0 29.90625 -0.523438 28.40625 -1.578125 C 26.914062 -2.628906 26.171875 -4.242188 26.171875 -6.421875 L 26.171875 -64.703125 L 3.75 -64.703125 C 1.414062 -64.703125 -0.296875 -65.347656 -1.390625 -66.640625 C -2.484375 -67.929688 -3.03125 -69.34375 -3.03125 -70.875 C -3.03125 -72.488281 -2.484375 -73.941406 -1.390625 -75.234375 C -0.296875 -76.523438 1.414062 -77.171875 3.75 -77.171875 Z M 62.765625 -77.171875 "/></g></g></g><g fill="#092343" fill-opacity="1"><g transform="translate(297.527215, 250.281575)"><g><path d="M 39.625 -78.390625 C 40.914062 -78.390625 42.125 -78.125 43.25 -77.59375 C 44.382812 -77.070312 45.234375 -76.207031 45.796875 -75 L 80.078125 -7.75 C 81.128906 -5.976562 81.410156 -4.425781 80.921875 -3.09375 C 80.441406 -1.757812 79.515625 -0.707031 78.140625 0.0625 C 76.773438 0.832031 75.320312 1.21875 73.78125 1.21875 C 72.65625 1.21875 71.503906 0.910156 70.328125 0.296875 C 69.160156 -0.304688 68.253906 -1.171875 67.609375 -2.296875 L 59.125 -19.140625 L 20.109375 -19.140625 L 11.625 -2.296875 C 11.0625 -1.003906 10.191406 -0.0976562 9.015625 0.421875 C 7.847656 0.953125 6.703125 1.21875 5.578125 1.21875 C 4.203125 1.21875 2.847656 0.832031 1.515625 0.0625 C 0.179688 -0.707031 -0.785156 -1.757812 -1.390625 -3.09375 C -1.992188 -4.425781 -1.9375 -5.859375 -1.21875 -7.390625 L 33.3125 -75 C 33.957031 -76.375 34.785156 -77.28125 35.796875 -77.71875 C 36.804688 -78.164062 38.082031 -78.390625 39.625 -78.390625 Z M 39.625 -57.90625 L 26.046875 -30.890625 L 53.1875 -30.890625 Z M 39.625 -57.90625 "/></g></g></g><g fill="#092343" fill-opacity="1"><g transform="translate(377.354391, 250.281575)"><g><path d="M 20.953125 -65.421875 L 20.953125 -41.3125 L 59.734375 -41.3125 C 61.828125 -41.3125 63.398438 -40.6875 64.453125 -39.4375 C 65.503906 -38.1875 66.03125 -36.832031 66.03125 -35.375 C 66.03125 -33.925781 65.503906 -32.613281 64.453125 -31.4375 C 63.398438 -30.269531 61.828125 -29.6875 59.734375 -29.6875 L 20.953125 -29.6875 L 20.953125 -6.546875 C 20.953125 -4.441406 20.222656 -2.820312 18.765625 -1.6875 C 17.316406 -0.5625 15.742188 0 14.046875 0 C 12.273438 0 10.660156 -0.5625 9.203125 -1.6875 C 7.753906 -2.820312 7.03125 -4.398438 7.03125 -6.421875 L 7.03125 -70.03125 C 7.03125 -71.96875 7.816406 -73.640625 9.390625 -75.046875 C 10.960938 -76.460938 12.800781 -77.171875 14.90625 -77.171875 L 61.90625 -77.171875 C 64.09375 -77.171875 65.707031 -76.566406 66.75 -75.359375 C 67.800781 -74.148438 68.328125 -72.773438 68.328125 -71.234375 C 68.328125 -69.785156 67.800781 -68.453125 66.75 -67.234375 C 65.707031 -66.023438 64.09375 -65.421875 61.90625 -65.421875 Z M 20.953125 -65.421875 "/></g></g></g><g fill="#092343" fill-opacity="1"><g transform="translate(447.490763, 250.281575)"><g><path d="M 81.78125 -38.53125 C 81.78125 -30.613281 80.144531 -23.664062 76.875 -17.6875 C 73.601562 -11.707031 69.019531 -7.0625 63.125 -3.75 C 57.226562 -0.4375 50.320312 1.21875 42.40625 1.21875 C 34.488281 1.21875 27.539062 -0.4375 21.5625 -3.75 C 15.582031 -7.0625 10.9375 -11.707031 7.625 -17.6875 C 4.320312 -23.664062 2.671875 -30.613281 2.671875 -38.53125 C 2.671875 -46.519531 4.320312 -53.503906 7.625 -59.484375 C 10.9375 -65.460938 15.582031 -70.109375 21.5625 -73.421875 C 27.539062 -76.734375 34.488281 -78.390625 42.40625 -78.390625 C 50.320312 -78.390625 57.226562 -76.734375 63.125 -73.421875 C 69.019531 -70.109375 73.601562 -65.460938 76.875 -59.484375 C 80.144531 -53.503906 81.78125 -46.519531 81.78125 -38.53125 Z M 42.40625 -11.140625 C 47.488281 -11.140625 51.910156 -12.289062 55.671875 -14.59375 C 59.429688 -16.894531 62.359375 -20.101562 64.453125 -24.21875 C 66.554688 -28.34375 67.609375 -33.113281 67.609375 -38.53125 C 67.609375 -44.019531 66.554688 -48.820312 64.453125 -52.9375 C 62.359375 -57.0625 59.429688 -60.273438 55.671875 -62.578125 C 51.910156 -64.878906 47.488281 -66.03125 42.40625 -66.03125 C 37.3125 -66.03125 32.847656 -64.878906 29.015625 -62.578125 C 25.179688 -60.273438 22.210938 -57.0625 20.109375 -52.9375 C 18.015625 -48.820312 16.96875 -44.019531 16.96875 -38.53125 C 16.96875 -33.113281 18.015625 -28.34375 20.109375 -24.21875 C 22.210938 -20.101562 25.179688 -16.894531 29.015625 -14.59375 C 32.847656 -12.289062 37.3125 -11.140625 42.40625 -11.140625 Z M 42.40625 -11.140625 "/></g></g></g><g fill="#092343" fill-opacity="1"><g transform="translate(533.132404, 250.281575)"><g><path d="M 69.90625 -11.875 C 71.757812 -9.9375 72.644531 -8.054688 72.5625 -6.234375 C 72.488281 -4.421875 71.804688 -2.925781 70.515625 -1.75 C 69.222656 -0.582031 67.707031 0.0195312 65.96875 0.0625 C 64.226562 0.101562 62.59375 -0.679688 61.0625 -2.296875 L 39.375 -25.4375 L 21.078125 -25.4375 L 21.078125 -6.296875 C 21.078125 -4.273438 20.328125 -2.71875 18.828125 -1.625 C 17.335938 -0.539062 15.742188 0 14.046875 0 C 12.273438 0 10.660156 -0.523438 9.203125 -1.578125 C 7.753906 -2.628906 7.03125 -4.160156 7.03125 -6.171875 L 7.03125 -70.875 C 7.03125 -72.726562 7.695312 -74.238281 9.03125 -75.40625 C 10.363281 -76.582031 12.035156 -77.171875 14.046875 -77.171875 L 41.078125 -77.171875 C 48.335938 -77.171875 54.390625 -76 59.234375 -73.65625 C 64.085938 -71.320312 67.722656 -68.175781 70.140625 -64.21875 C 72.566406 -60.257812 73.78125 -55.851562 73.78125 -51 C 73.78125 -45.351562 72.265625 -40.40625 69.234375 -36.15625 C 66.210938 -31.914062 61.59375 -28.910156 55.375 -27.140625 Z M 21.078125 -37.1875 L 41.1875 -37.1875 C 47.65625 -37.1875 52.378906 -38.539062 55.359375 -41.25 C 58.347656 -43.957031 59.765625 -47.171875 59.609375 -50.890625 C 59.523438 -54.921875 57.867188 -58.269531 54.640625 -60.9375 C 51.410156 -63.601562 46.925781 -64.9375 41.1875 -64.9375 L 21.078125 -64.9375 Z M 21.078125 -37.1875 "/></g></g></g><g fill="#092343" fill-opacity="1"><g transform="translate(608.114159, 250.281575)"><g><path d="M 14.296875 -77.171875 C 16.878906 -77.171875 18.9375 -75.960938 20.46875 -73.546875 L 45.796875 -33.921875 L 71 -73.65625 C 71.800781 -74.875 72.785156 -75.765625 73.953125 -76.328125 C 75.128906 -76.890625 76.285156 -77.171875 77.421875 -77.171875 C 79.191406 -77.171875 80.765625 -76.582031 82.140625 -75.40625 C 83.515625 -74.238281 84.203125 -72.566406 84.203125 -70.390625 L 84.203125 -6.296875 C 84.203125 -4.203125 83.429688 -2.628906 81.890625 -1.578125 C 80.359375 -0.523438 78.75 0 77.0625 0 C 75.28125 0 73.679688 -0.523438 72.265625 -1.578125 C 70.859375 -2.628906 70.15625 -4.203125 70.15625 -6.296875 L 70.15625 -47.125 L 52.09375 -18.90625 C 51.445312 -17.6875 50.535156 -16.796875 49.359375 -16.234375 C 48.191406 -15.671875 47.003906 -15.390625 45.796875 -15.390625 C 44.585938 -15.390625 43.351562 -15.734375 42.09375 -16.421875 C 40.84375 -17.109375 39.894531 -18.054688 39.25 -19.265625 L 21.4375 -47.015625 L 21.4375 -6.296875 C 21.4375 -4.203125 20.691406 -2.628906 19.203125 -1.578125 C 17.710938 -0.523438 16.117188 0 14.421875 0 C 12.640625 0 11.019531 -0.523438 9.5625 -1.578125 C 8.113281 -2.628906 7.390625 -4.203125 7.390625 -6.296875 L 7.390625 -70.265625 C 7.390625 -72.367188 8.09375 -74.046875 9.5 -75.296875 C 10.914062 -76.546875 12.515625 -77.171875 14.296875 -77.171875 Z M 14.296875 -77.171875 "/></g></g></g><g fill="#092343" fill-opacity="1"><g transform="translate(700.660457, 250.281575)"><g><path d="M 39.625 -78.390625 C 40.914062 -78.390625 42.125 -78.125 43.25 -77.59375 C 44.382812 -77.070312 45.234375 -76.207031 45.796875 -75 L 80.078125 -7.75 C 81.128906 -5.976562 81.410156 -4.425781 80.921875 -3.09375 C 80.441406 -1.757812 79.515625 -0.707031 78.140625 0.0625 C 76.773438 0.832031 75.320312 1.21875 73.78125 1.21875 C 72.65625 1.21875 71.503906 0.910156 70.328125 0.296875 C 69.160156 -0.304688 68.253906 -1.171875 67.609375 -2.296875 L 59.125 -19.140625 L 20.109375 -19.140625 L 11.625 -2.296875 C 11.0625 -1.003906 10.191406 -0.0976562 9.015625 0.421875 C 7.847656 0.953125 6.703125 1.21875 5.578125 1.21875 C 4.203125 1.21875 2.847656 0.832031 1.515625 0.0625 C 0.179688 -0.707031 -0.785156 -1.757812 -1.390625 -3.09375 C -1.992188 -4.425781 -1.9375 -5.859375 -1.21875 -7.390625 L 33.3125 -75 C 33.957031 -76.375 34.785156 -77.28125 35.796875 -77.71875 C 36.804688 -78.164062 38.082031 -78.390625 39.625 -78.390625 Z M 39.625 -57.90625 L 26.046875 -30.890625 L 53.1875 -30.890625 Z M 39.625 -57.90625 "/></g></g></g><g fill="#092343" fill-opacity="1"><g transform="translate(543.320501, 286.94469)"><g><path d="M 16.671875 -30.8125 C 19.015625 -30.8125 21.1875 -30.460938 23.1875 -29.765625 C 25.1875 -29.066406 26.96875 -27.84375 28.53125 -26.09375 C 29.164062 -25.363281 29.441406 -24.664062 29.359375 -24 C 29.273438 -23.332031 28.972656 -22.789062 28.453125 -22.375 C 27.929688 -21.96875 27.3125 -21.78125 26.59375 -21.8125 C 25.882812 -21.84375 25.210938 -22.191406 24.578125 -22.859375 C 23.398438 -24.160156 22.148438 -25 20.828125 -25.375 C 19.515625 -25.757812 18.113281 -25.953125 16.625 -25.953125 C 14.625 -25.953125 12.867188 -25.515625 11.359375 -24.640625 C 9.847656 -23.773438 8.671875 -22.5625 7.828125 -21 C 6.992188 -19.445312 6.578125 -17.625 6.578125 -15.53125 C 6.578125 -13.300781 7.003906 -11.34375 7.859375 -9.65625 C 8.710938 -7.976562 9.910156 -6.675781 11.453125 -5.75 C 12.992188 -4.832031 14.796875 -4.375 16.859375 -4.375 C 18.347656 -4.375 19.835938 -4.753906 21.328125 -5.515625 C 22.828125 -6.285156 24.019531 -7.207031 24.90625 -8.28125 C 25.539062 -9.050781 26.226562 -9.488281 26.96875 -9.59375 C 27.71875 -9.707031 28.367188 -9.582031 28.921875 -9.21875 C 29.484375 -8.851562 29.816406 -8.335938 29.921875 -7.671875 C 30.035156 -7.003906 29.804688 -6.253906 29.234375 -5.421875 C 28.378906 -4.222656 27.269531 -3.175781 25.90625 -2.28125 C 24.539062 -1.394531 23.0625 -0.710938 21.46875 -0.234375 C 19.882812 0.234375 18.316406 0.46875 16.765625 0.46875 C 13.617188 0.46875 10.867188 -0.195312 8.515625 -1.53125 C 6.171875 -2.863281 4.347656 -4.726562 3.046875 -7.125 C 1.742188 -9.519531 1.09375 -12.320312 1.09375 -15.53125 C 1.09375 -18.601562 1.773438 -21.28125 3.140625 -23.5625 C 4.503906 -25.851562 6.367188 -27.632812 8.734375 -28.90625 C 11.097656 -30.175781 13.742188 -30.8125 16.671875 -30.8125 Z M 16.671875 -30.8125 "/></g></g></g><g fill="#092343" fill-opacity="1"><g transform="translate(573.278058, 286.94469)"><g><path d="M 32.140625 -15.140625 C 32.140625 -12.035156 31.5 -9.304688 30.21875 -6.953125 C 28.9375 -4.597656 27.132812 -2.769531 24.8125 -1.46875 C 22.5 -0.175781 19.785156 0.46875 16.671875 0.46875 C 13.554688 0.46875 10.820312 -0.175781 8.46875 -1.46875 C 6.125 -2.769531 4.300781 -4.597656 3 -6.953125 C 1.695312 -9.304688 1.046875 -12.035156 1.046875 -15.140625 C 1.046875 -18.285156 1.695312 -21.03125 3 -23.375 C 4.300781 -25.726562 6.125 -27.554688 8.46875 -28.859375 C 10.820312 -30.160156 13.554688 -30.8125 16.671875 -30.8125 C 19.785156 -30.8125 22.5 -30.160156 24.8125 -28.859375 C 27.132812 -27.554688 28.9375 -25.726562 30.21875 -23.375 C 31.5 -21.03125 32.140625 -18.285156 32.140625 -15.140625 Z M 16.671875 -4.375 C 18.671875 -4.375 20.40625 -4.828125 21.875 -5.734375 C 23.351562 -6.640625 24.503906 -7.898438 25.328125 -9.515625 C 26.160156 -11.140625 26.578125 -13.015625 26.578125 -15.140625 C 26.578125 -17.304688 26.160156 -19.195312 25.328125 -20.8125 C 24.503906 -22.425781 23.351562 -23.6875 21.875 -24.59375 C 20.40625 -25.5 18.671875 -25.953125 16.671875 -25.953125 C 14.671875 -25.953125 12.914062 -25.5 11.40625 -24.59375 C 9.894531 -23.6875 8.726562 -22.425781 7.90625 -20.8125 C 7.082031 -19.195312 6.671875 -17.304688 6.671875 -15.140625 C 6.671875 -13.015625 7.082031 -11.140625 7.90625 -9.515625 C 8.726562 -7.898438 9.894531 -6.640625 11.40625 -5.734375 C 12.914062 -4.828125 14.671875 -4.375 16.671875 -4.375 Z M 16.671875 -4.375 "/></g></g></g><g fill="#092343" fill-opacity="1"><g transform="translate(606.950581, 286.94469)"><g><path d="M 22.953125 -28 C 22.953125 -28.757812 23.257812 -29.335938 23.875 -29.734375 C 24.5 -30.140625 25.160156 -30.34375 25.859375 -30.34375 C 26.585938 -30.34375 27.226562 -30.15625 27.78125 -29.78125 C 28.34375 -29.414062 28.625 -28.820312 28.625 -28 L 28.625 -2.859375 C 28.625 -1.898438 28.289062 -1.179688 27.625 -0.703125 C 26.957031 -0.234375 26.226562 0 25.4375 0 C 24.894531 0 24.359375 -0.125 23.828125 -0.375 C 23.304688 -0.632812 22.890625 -0.96875 22.578125 -1.375 L 8 -20.140625 L 8.1875 -17.484375 L 8.1875 -2.53125 C 8.1875 -1.632812 7.890625 -0.988281 7.296875 -0.59375 C 6.710938 -0.195312 6.070312 0 5.375 0 C 4.644531 0 3.988281 -0.195312 3.40625 -0.59375 C 2.820312 -0.988281 2.53125 -1.632812 2.53125 -2.53125 L 2.53125 -27.4375 C 2.53125 -28.382812 2.820312 -29.101562 3.40625 -29.59375 C 3.988281 -30.09375 4.660156 -30.34375 5.421875 -30.34375 C 6.023438 -30.34375 6.539062 -30.222656 6.96875 -29.984375 C 7.40625 -29.742188 7.8125 -29.382812 8.1875 -28.90625 L 23.140625 -9.484375 L 22.953125 -12.671875 Z M 22.953125 -28 "/></g></g></g><g fill="#092343" fill-opacity="1"><g transform="translate(638.05121, 286.94469)"><g><path d="M 16.671875 -30.8125 C 19.015625 -30.8125 21.1875 -30.460938 23.1875 -29.765625 C 25.1875 -29.066406 26.96875 -27.84375 28.53125 -26.09375 C 29.164062 -25.363281 29.441406 -24.664062 29.359375 -24 C 29.273438 -23.332031 28.972656 -22.789062 28.453125 -22.375 C 27.929688 -21.96875 27.3125 -21.78125 26.59375 -21.8125 C 25.882812 -21.84375 25.210938 -22.191406 24.578125 -22.859375 C 23.398438 -24.160156 22.148438 -25 20.828125 -25.375 C 19.515625 -25.757812 18.113281 -25.953125 16.625 -25.953125 C 14.625 -25.953125 12.867188 -25.515625 11.359375 -24.640625 C 9.847656 -23.773438 8.671875 -22.5625 7.828125 -21 C 6.992188 -19.445312 6.578125 -17.625 6.578125 -15.53125 C 6.578125 -13.300781 7.003906 -11.34375 7.859375 -9.65625 C 8.710938 -7.976562 9.910156 -6.675781 11.453125 -5.75 C 12.992188 -4.832031 14.796875 -4.375 16.859375 -4.375 C 18.347656 -4.375 19.835938 -4.753906 21.328125 -5.515625 C 22.828125 -6.285156 24.019531 -7.207031 24.90625 -8.28125 C 25.539062 -9.050781 26.226562 -9.488281 26.96875 -9.59375 C 27.71875 -9.707031 28.367188 -9.582031 28.921875 -9.21875 C 29.484375 -8.851562 29.816406 -8.335938 29.921875 -7.671875 C 30.035156 -7.003906 29.804688 -6.253906 29.234375 -5.421875 C 28.378906 -4.222656 27.269531 -3.175781 25.90625 -2.28125 C 24.539062 -1.394531 23.0625 -0.710938 21.46875 -0.234375 C 19.882812 0.234375 18.316406 0.46875 16.765625 0.46875 C 13.617188 0.46875 10.867188 -0.195312 8.515625 -1.53125 C 6.171875 -2.863281 4.347656 -4.726562 3.046875 -7.125 C 1.742188 -9.519531 1.09375 -12.320312 1.09375 -15.53125 C 1.09375 -18.601562 1.773438 -21.28125 3.140625 -23.5625 C 4.503906 -25.851562 6.367188 -27.632812 8.734375 -28.90625 C 11.097656 -30.175781 13.742188 -30.8125 16.671875 -30.8125 Z M 16.671875 -30.8125 "/></g></g></g><g fill="#092343" fill-opacity="1"><g transform="translate(668.008767, 286.94469)"><g><path d="M 27.484375 -4.671875 C 28.210938 -3.910156 28.5625 -3.171875 28.53125 -2.453125 C 28.5 -1.734375 28.226562 -1.144531 27.71875 -0.6875 C 27.207031 -0.226562 26.609375 0.00390625 25.921875 0.015625 C 25.242188 0.0351562 24.601562 -0.269531 24 -0.90625 L 15.484375 -10 L 8.28125 -10 L 8.28125 -2.46875 C 8.28125 -1.675781 7.988281 -1.066406 7.40625 -0.640625 C 6.820312 -0.210938 6.195312 0 5.53125 0 C 4.832031 0 4.195312 -0.203125 3.625 -0.609375 C 3.050781 -1.023438 2.765625 -1.628906 2.765625 -2.421875 L 2.765625 -27.859375 C 2.765625 -28.585938 3.023438 -29.179688 3.546875 -29.640625 C 4.066406 -30.109375 4.726562 -30.34375 5.53125 -30.34375 L 16.140625 -30.34375 C 19.003906 -30.34375 21.382812 -29.878906 23.28125 -28.953125 C 25.1875 -28.035156 26.613281 -26.796875 27.5625 -25.234375 C 28.519531 -23.679688 29 -21.953125 29 -20.046875 C 29 -17.828125 28.40625 -15.882812 27.21875 -14.21875 C 26.03125 -12.550781 24.210938 -11.367188 21.765625 -10.671875 Z M 8.28125 -14.625 L 16.1875 -14.625 C 18.726562 -14.625 20.585938 -15.15625 21.765625 -16.21875 C 22.941406 -17.28125 23.5 -18.539062 23.4375 -20 C 23.40625 -21.59375 22.753906 -22.910156 21.484375 -23.953125 C 20.210938 -25.003906 18.445312 -25.53125 16.1875 -25.53125 L 8.28125 -25.53125 Z M 8.28125 -14.625 "/></g></g></g><g fill="#092343" fill-opacity="1"><g transform="translate(697.49005, 286.94469)"><g><path d="M 24.8125 -4.765625 C 25.632812 -4.765625 26.273438 -4.5 26.734375 -3.96875 C 27.203125 -3.445312 27.4375 -2.882812 27.4375 -2.28125 C 27.4375 -1.707031 27.21875 -1.179688 26.78125 -0.703125 C 26.351562 -0.234375 25.695312 0 24.8125 0 L 5.90625 0 C 4.957031 0 4.195312 -0.273438 3.625 -0.828125 C 3.050781 -1.390625 2.765625 -2.066406 2.765625 -2.859375 L 2.765625 -27.53125 C 2.765625 -28.289062 3.050781 -28.945312 3.625 -29.5 C 4.195312 -30.0625 4.957031 -30.34375 5.90625 -30.34375 L 24.8125 -30.34375 C 25.664062 -30.34375 26.300781 -30.109375 26.71875 -29.640625 C 27.132812 -29.179688 27.34375 -28.648438 27.34375 -28.046875 C 27.34375 -27.472656 27.125 -26.929688 26.6875 -26.421875 C 26.257812 -25.921875 25.632812 -25.671875 24.8125 -25.671875 L 8.1875 -25.671875 L 8.1875 -17.328125 L 23.953125 -17.328125 C 24.773438 -17.328125 25.394531 -17.082031 25.8125 -16.59375 C 26.226562 -16.101562 26.4375 -15.554688 26.4375 -14.953125 C 26.4375 -14.378906 26.226562 -13.851562 25.8125 -13.375 C 25.394531 -12.90625 24.773438 -12.671875 23.953125 -12.671875 L 8.1875 -12.671875 L 8.1875 -4.765625 Z M 24.8125 -4.765625 "/></g></g></g><g fill="#092343" fill-opacity="1"><g transform="translate(726.114048, 286.94469)"><g><path d="M 24.671875 -30.34375 C 25.585938 -30.34375 26.285156 -30.085938 26.765625 -29.578125 C 27.242188 -29.066406 27.484375 -28.492188 27.484375 -27.859375 C 27.484375 -27.253906 27.242188 -26.695312 26.765625 -26.1875 C 26.285156 -25.6875 25.585938 -25.4375 24.671875 -25.4375 L 15.8125 -25.4375 L 15.859375 -2.53125 C 15.859375 -1.664062 15.546875 -1.023438 14.921875 -0.609375 C 14.304688 -0.203125 13.679688 0 13.046875 0 C 12.378906 0 11.75 -0.203125 11.15625 -0.609375 C 10.570312 -1.023438 10.28125 -1.664062 10.28125 -2.53125 L 10.28125 -25.4375 L 1.46875 -25.4375 C 0.550781 -25.4375 -0.117188 -25.6875 -0.546875 -26.1875 C -0.972656 -26.695312 -1.1875 -27.253906 -1.1875 -27.859375 C -1.1875 -28.492188 -0.972656 -29.066406 -0.546875 -29.578125 C -0.117188 -30.085938 0.550781 -30.34375 1.46875 -30.34375 Z M 24.671875 -30.34375 "/></g></g></g><g fill="#092343" fill-opacity="1"><g transform="translate(752.356656, 286.94469)"><g><path d="M 15.578125 -30.8125 C 16.078125 -30.8125 16.550781 -30.707031 17 -30.5 C 17.445312 -30.289062 17.78125 -29.953125 18 -29.484375 L 31.484375 -3.046875 C 31.890625 -2.347656 32 -1.734375 31.8125 -1.203125 C 31.625 -0.679688 31.257812 -0.273438 30.71875 0.015625 C 30.175781 0.316406 29.601562 0.46875 29 0.46875 C 28.5625 0.46875 28.109375 0.347656 27.640625 0.109375 C 27.179688 -0.117188 26.828125 -0.457031 26.578125 -0.90625 L 23.234375 -7.53125 L 7.90625 -7.53125 L 4.578125 -0.90625 C 4.347656 -0.394531 4.003906 -0.0390625 3.546875 0.15625 C 3.085938 0.363281 2.632812 0.46875 2.1875 0.46875 C 1.644531 0.46875 1.113281 0.316406 0.59375 0.015625 C 0.0703125 -0.273438 -0.304688 -0.679688 -0.546875 -1.203125 C -0.785156 -1.734375 -0.757812 -2.300781 -0.46875 -2.90625 L 13.09375 -29.484375 C 13.351562 -30.023438 13.679688 -30.378906 14.078125 -30.546875 C 14.472656 -30.722656 14.972656 -30.8125 15.578125 -30.8125 Z M 15.578125 -22.765625 L 10.234375 -12.140625 L 20.90625 -12.140625 Z M 15.578125 -22.765625 "/></g></g></g><g fill="#092343" fill-opacity="1"><g transform="translate(21.727721, 166.441819)"><g><path d="M 29.234375 -7.328125 C 29.234375 -7.015625 29.1875 -6.679688 29.09375 -6.328125 C 29 -5.984375 28.8125 -5.648438 28.53125 -5.328125 C 27.570312 -4.222656 26.410156 -3.222656 25.046875 -2.328125 C 23.679688 -1.441406 22.238281 -0.753906 20.71875 -0.265625 C 19.195312 0.222656 17.6875 0.46875 16.1875 0.46875 C 13.050781 0.46875 10.332031 -0.195312 8.03125 -1.53125 C 5.726562 -2.863281 3.945312 -4.726562 2.6875 -7.125 C 1.4375 -9.519531 0.84375 -12.289062 0.90625 -15.4375 C 0.90625 -18.507812 1.546875 -21.195312 2.828125 -23.5 C 4.117188 -25.800781 5.921875 -27.59375 8.234375 -28.875 C 10.554688 -30.164062 13.253906 -30.8125 16.328125 -30.8125 C 18.429688 -30.8125 20.503906 -30.429688 22.546875 -29.671875 C 24.597656 -28.910156 26.320312 -27.78125 27.71875 -26.28125 C 28.382812 -25.582031 28.6875 -24.882812 28.625 -24.1875 C 28.5625 -23.488281 28.265625 -22.925781 27.734375 -22.5 C 27.210938 -22.070312 26.578125 -21.875 25.828125 -21.90625 C 25.085938 -21.9375 24.367188 -22.316406 23.671875 -23.046875 C 22.648438 -24.128906 21.492188 -24.90625 20.203125 -25.375 C 18.921875 -25.851562 17.628906 -26.09375 16.328125 -26.09375 C 14.359375 -26.09375 12.617188 -25.640625 11.109375 -24.734375 C 9.609375 -23.835938 8.441406 -22.578125 7.609375 -20.953125 C 6.785156 -19.335938 6.375 -17.445312 6.375 -15.28125 C 6.40625 -13.15625 6.832031 -11.265625 7.65625 -9.609375 C 8.488281 -7.960938 9.640625 -6.671875 11.109375 -5.734375 C 12.585938 -4.796875 14.296875 -4.328125 16.234375 -4.328125 C 17.628906 -4.328125 19.019531 -4.632812 20.40625 -5.25 C 21.789062 -5.875 22.941406 -6.726562 23.859375 -7.8125 L 23.859375 -12.671875 L 16.90625 -12.671875 C 16.019531 -12.671875 15.359375 -12.90625 14.921875 -13.375 C 14.492188 -13.851562 14.28125 -14.378906 14.28125 -14.953125 C 14.28125 -15.585938 14.492188 -16.148438 14.921875 -16.640625 C 15.359375 -17.140625 16.019531 -17.390625 16.90625 -17.390625 L 26.390625 -17.390625 C 27.492188 -17.390625 28.242188 -17.148438 28.640625 -16.671875 C 29.035156 -16.191406 29.234375 -15.570312 29.234375 -14.8125 Z M 29.234375 -7.328125 "/></g></g></g><g fill="#092343" fill-opacity="1"><g transform="translate(53.495129, 166.441819)"><g><path d="M 27.484375 -4.671875 C 28.210938 -3.910156 28.5625 -3.171875 28.53125 -2.453125 C 28.5 -1.734375 28.226562 -1.144531 27.71875 -0.6875 C 27.207031 -0.226562 26.609375 0.00390625 25.921875 0.015625 C 25.242188 0.0351562 24.601562 -0.269531 24 -0.90625 L 15.484375 -10 L 8.28125 -10 L 8.28125 -2.46875 C 8.28125 -1.675781 7.988281 -1.066406 7.40625 -0.640625 C 6.820312 -0.210938 6.195312 0 5.53125 0 C 4.832031 0 4.195312 -0.203125 3.625 -0.609375 C 3.050781 -1.023438 2.765625 -1.628906 2.765625 -2.421875 L 2.765625 -27.859375 C 2.765625 -28.585938 3.023438 -29.179688 3.546875 -29.640625 C 4.066406 -30.109375 4.726562 -30.34375 5.53125 -30.34375 L 16.140625 -30.34375 C 19.003906 -30.34375 21.382812 -29.878906 23.28125 -28.953125 C 25.1875 -28.035156 26.613281 -26.796875 27.5625 -25.234375 C 28.519531 -23.679688 29 -21.953125 29 -20.046875 C 29 -17.828125 28.40625 -15.882812 27.21875 -14.21875 C 26.03125 -12.550781 24.210938 -11.367188 21.765625 -10.671875 Z M 8.28125 -14.625 L 16.1875 -14.625 C 18.726562 -14.625 20.585938 -15.15625 21.765625 -16.21875 C 22.941406 -17.28125 23.5 -18.539062 23.4375 -20 C 23.40625 -21.59375 22.753906 -22.910156 21.484375 -23.953125 C 20.210938 -25.003906 18.445312 -25.53125 16.1875 -25.53125 L 8.28125 -25.53125 Z M 8.28125 -14.625 "/></g></g></g><g fill="#092343" fill-opacity="1"><g transform="translate(82.976413, 166.441819)"><g><path d="M 25.8125 -27.8125 C 25.8125 -28.664062 26.101562 -29.300781 26.6875 -29.71875 C 27.28125 -30.132812 27.925781 -30.34375 28.625 -30.34375 C 29.351562 -30.34375 29.992188 -30.132812 30.546875 -29.71875 C 31.109375 -29.300781 31.390625 -28.679688 31.390625 -27.859375 L 31.390625 -13.375 C 31.390625 -10.613281 30.789062 -8.191406 29.59375 -6.109375 C 28.40625 -4.035156 26.738281 -2.421875 24.59375 -1.265625 C 22.457031 -0.109375 19.941406 0.46875 17.046875 0.46875 C 14.191406 0.46875 11.679688 -0.109375 9.515625 -1.265625 C 7.359375 -2.421875 5.6875 -4.035156 4.5 -6.109375 C 3.3125 -8.191406 2.71875 -10.613281 2.71875 -13.375 L 2.71875 -27.953125 C 2.71875 -28.742188 3 -29.335938 3.5625 -29.734375 C 4.132812 -30.140625 4.773438 -30.34375 5.484375 -30.34375 C 6.210938 -30.34375 6.867188 -30.140625 7.453125 -29.734375 C 8.035156 -29.335938 8.328125 -28.726562 8.328125 -27.90625 L 8.328125 -13.375 C 8.328125 -10.75 9.117188 -8.617188 10.703125 -6.984375 C 12.296875 -5.347656 14.394531 -4.53125 17 -4.53125 C 19.632812 -4.53125 21.757812 -5.347656 23.375 -6.984375 C 25 -8.617188 25.8125 -10.75 25.8125 -13.375 Z M 25.8125 -27.8125 "/></g></g></g><g fill="#092343" fill-opacity="1"><g transform="translate(117.315717, 166.441819)"><g><path d="M 8.234375 -8.421875 L 8.234375 -2.421875 C 8.234375 -1.597656 7.941406 -0.988281 7.359375 -0.59375 C 6.773438 -0.195312 6.148438 0 5.484375 0 C 4.773438 0 4.144531 -0.195312 3.59375 -0.59375 C 3.039062 -0.988281 2.765625 -1.582031 2.765625 -2.375 L 2.765625 -27.859375 C 2.765625 -28.585938 3.03125 -29.179688 3.5625 -29.640625 C 4.101562 -30.109375 4.757812 -30.34375 5.53125 -30.34375 L 15.234375 -30.34375 C 17.867188 -30.34375 20.125 -29.875 22 -28.9375 C 23.875 -28 25.300781 -26.695312 26.28125 -25.03125 C 27.269531 -23.363281 27.765625 -21.398438 27.765625 -19.140625 C 27.765625 -15.929688 26.648438 -13.34375 24.421875 -11.375 C 22.203125 -9.40625 19.09375 -8.421875 15.09375 -8.421875 Z M 8.234375 -25.625 L 8.234375 -13.140625 L 15.09375 -13.140625 C 17.445312 -13.140625 19.242188 -13.6875 20.484375 -14.78125 C 21.722656 -15.882812 22.34375 -17.335938 22.34375 -19.140625 C 22.34375 -21.109375 21.726562 -22.679688 20.5 -23.859375 C 19.28125 -25.035156 17.539062 -25.625 15.28125 -25.625 Z M 8.234375 -25.625 "/></g></g></g><g fill="#092343" fill-opacity="1"><g transform="translate(145.987336, 166.441819)"><g><path d="M 32.140625 -15.140625 C 32.140625 -12.035156 31.5 -9.304688 30.21875 -6.953125 C 28.9375 -4.597656 27.132812 -2.769531 24.8125 -1.46875 C 22.5 -0.175781 19.785156 0.46875 16.671875 0.46875 C 13.554688 0.46875 10.820312 -0.175781 8.46875 -1.46875 C 6.125 -2.769531 4.300781 -4.597656 3 -6.953125 C 1.695312 -9.304688 1.046875 -12.035156 1.046875 -15.140625 C 1.046875 -18.285156 1.695312 -21.03125 3 -23.375 C 4.300781 -25.726562 6.125 -27.554688 8.46875 -28.859375 C 10.820312 -30.160156 13.554688 -30.8125 16.671875 -30.8125 C 19.785156 -30.8125 22.5 -30.160156 24.8125 -28.859375 C 27.132812 -27.554688 28.9375 -25.726562 30.21875 -23.375 C 31.5 -21.03125 32.140625 -18.285156 32.140625 -15.140625 Z M 16.671875 -4.375 C 18.671875 -4.375 20.40625 -4.828125 21.875 -5.734375 C 23.351562 -6.640625 24.503906 -7.898438 25.328125 -9.515625 C 26.160156 -11.140625 26.578125 -13.015625 26.578125 -15.140625 C 26.578125 -17.304688 26.160156 -19.195312 25.328125 -20.8125 C 24.503906 -22.425781 23.351562 -23.6875 21.875 -24.59375 C 20.40625 -25.5 18.671875 -25.953125 16.671875 -25.953125 C 14.671875 -25.953125 12.914062 -25.5 11.40625 -24.59375 C 9.894531 -23.6875 8.726562 -22.425781 7.90625 -20.8125 C 7.082031 -19.195312 6.671875 -17.304688 6.671875 -15.140625 C 6.671875 -13.015625 7.082031 -11.140625 7.90625 -9.515625 C 8.726562 -7.898438 9.894531 -6.640625 11.40625 -5.734375 C 12.914062 -4.828125 14.671875 -4.375 16.671875 -4.375 Z M 16.671875 -4.375 "/></g></g></g></svg>